<svg xmlns="http://www.w3.org/2000/svg" viewBox="0 -0.5 25 25" shape-rendering="crispEdges">
<metadata>Made with Pixels to Svg https://codepen.io/shshaw/pen/XbxvNj</metadata>
<path stroke="#000000" d="M12 1h2M9 2h3M14 2h1M8 3h1M11 3h1M14 3h3M8 4h1M11 4h1M14 4h1M17 4h1M8 5h1M11 5h1M14 5h1M17 5h1M8 6h1M11 6h1M14 6h1M17 6h2M8 7h1M11 7h1M14 7h1M17 7h1M19 7h1M8 8h1M11 8h1M14 8h1M17 8h1M19 8h1M8 9h1M11 9h1M14 9h1M17 9h1M19 9h1M8 10h1M11 10h1M14 10h1M17 10h1M19 10h1M8 11h1M11 11h1M14 11h1M19 11h1M8 12h1M19 12h1M8 13h1M19 13h1M3 14h6M19 14h1M2 15h1M19 15h1M2 16h1M19 16h1M2 17h5M19 17h1M7 18h1M18 18h1M8 19h2M18 19h1M9 20h1M17 20h2M9 21h1M16 21h2M10 22h7" />
<path stroke="rgba(0,0,0,0.06666666666666667)" d="M18 10h1" />
<path stroke="rgba(0,0,0,0.023529411764705882)" d="M11 12h1" />
<path stroke="rgba(0,0,0,0.043137254901960784)" d="M11 13h1" />
</svg>