<svg xmlns="http://www.w3.org/2000/svg" viewBox="0 -0.5 25 25" shape-rendering="crispEdges">
<metadata>Made with Pixels to Svg https://codepen.io/shshaw/pen/XbxvNj</metadata>
<path stroke="#000000" d="M8 1h2M7 2h1M10 2h1M7 3h1M10 3h1M16 3h2M7 4h1M10 4h1M15 4h1M18 4h1M7 5h1M10 5h1M15 5h1M18 5h1M7 6h1M10 6h1M15 6h1M18 6h1M7 7h1M10 7h1M15 7h1M18 7h1M7 8h1M10 8h1M15 8h1M18 8h1M7 9h1M10 9h3M15 9h1M18 9h1M7 10h1M10 10h1M13 10h3M18 10h1M5 11h3M10 11h1M15 11h1M18 11h1M4 12h1M7 12h1M18 12h1M4 13h1M7 13h1M18 13h1M4 14h1M7 14h1M18 14h1M5 15h1M18 15h1M5 16h1M18 16h1M6 17h1M18 17h1M6 18h1M18 18h1M7 19h1M17 19h1M7 20h1M17 20h1M8 21h1M16 21h2M8 22h1M16 22h1M9 23h7" />
</svg>