<svg xmlns="http://www.w3.org/2000/svg" viewBox="0 -0.5 25 25" shape-rendering="crispEdges">
<metadata>Made with Pixels to Svg https://codepen.io/shshaw/pen/XbxvNj</metadata>
<path stroke="#000000" d="M14 1h2M7 2h2M13 2h1M16 2h1M6 3h1M9 3h1M13 3h1M16 3h1M6 4h1M9 4h1M13 4h1M16 4h1M6 5h1M9 5h1M13 5h1M15 5h1M6 6h1M10 6h1M15 6h1M7 7h1M10 7h1M12 7h1M15 7h1M7 8h1M10 8h1M12 8h1M15 8h1M7 9h1M10 9h1M12 9h1M14 9h1M8 10h1M11 10h1M14 10h1M8 11h1M11 11h1M14 11h3M6 12h3M14 12h1M17 12h2M5 13h1M8 13h1M17 13h1M19 13h1M5 14h1M9 14h1M19 14h1M5 15h1M19 15h1M6 16h1M19 16h1M6 17h1M19 17h1M7 18h1M19 18h1M7 19h1M19 19h1M8 20h1M18 20h1M8 21h1M18 21h1M9 22h1M17 22h2M9 23h1M17 23h1M10 24h7" />
<path stroke="rgba(0,0,0,0.9098039215686274)" d="M12 6h1" />
</svg>